<mxfile host="app.diagrams.net" agent="Mozilla/5.0 (Windows NT 10.0; Win64; x64) AppleWebKit/537.36 (KHTML, like Gecko) Chrome/131.0.0.0 Safari/537.36" version="25.0.1">
  <diagram id="C5RBs43oDa-KdzZeNtuy" name="Page-1">
    <mxGraphModel dx="560" dy="771" grid="1" gridSize="10" guides="1" tooltips="1" connect="1" arrows="1" fold="1" page="1" pageScale="1" pageWidth="827" pageHeight="1169" math="0" shadow="0">
      <root>
        <mxCell id="WIyWlLk6GJQsqaUBKTNV-0" />
        <mxCell id="WIyWlLk6GJQsqaUBKTNV-1" parent="WIyWlLk6GJQsqaUBKTNV-0" />
        <mxCell id="WIyWlLk6GJQsqaUBKTNV-2" value="" style="rounded=0;html=1;jettySize=auto;orthogonalLoop=1;fontSize=11;endArrow=block;endFill=0;endSize=8;strokeWidth=1;shadow=0;labelBackgroundColor=none;edgeStyle=orthogonalEdgeStyle;" parent="WIyWlLk6GJQsqaUBKTNV-1" source="WIyWlLk6GJQsqaUBKTNV-3" target="WIyWlLk6GJQsqaUBKTNV-6" edge="1">
          <mxGeometry relative="1" as="geometry" />
        </mxCell>
        <mxCell id="WIyWlLk6GJQsqaUBKTNV-3" value="주문하기" style="rounded=1;whiteSpace=wrap;html=1;fontSize=12;glass=0;strokeWidth=1;shadow=0;" parent="WIyWlLk6GJQsqaUBKTNV-1" vertex="1">
          <mxGeometry x="30" y="20" width="120" height="40" as="geometry" />
        </mxCell>
        <mxCell id="WIyWlLk6GJQsqaUBKTNV-4" value="매장" style="rounded=0;html=1;jettySize=auto;orthogonalLoop=1;fontSize=11;endArrow=block;endFill=0;endSize=8;strokeWidth=1;shadow=0;labelBackgroundColor=none;edgeStyle=orthogonalEdgeStyle;" parent="WIyWlLk6GJQsqaUBKTNV-1" source="WIyWlLk6GJQsqaUBKTNV-6" target="WIyWlLk6GJQsqaUBKTNV-10" edge="1">
          <mxGeometry y="20" relative="1" as="geometry">
            <mxPoint as="offset" />
          </mxGeometry>
        </mxCell>
        <mxCell id="WIyWlLk6GJQsqaUBKTNV-5" value="포장" style="edgeStyle=orthogonalEdgeStyle;rounded=0;html=1;jettySize=auto;orthogonalLoop=1;fontSize=11;endArrow=block;endFill=0;endSize=8;strokeWidth=1;shadow=0;labelBackgroundColor=none;" parent="WIyWlLk6GJQsqaUBKTNV-1" source="WIyWlLk6GJQsqaUBKTNV-6" target="WIyWlLk6GJQsqaUBKTNV-7" edge="1">
          <mxGeometry y="10" relative="1" as="geometry">
            <mxPoint as="offset" />
          </mxGeometry>
        </mxCell>
        <mxCell id="WIyWlLk6GJQsqaUBKTNV-6" value="포장/매장" style="rhombus;whiteSpace=wrap;html=1;shadow=0;fontFamily=Helvetica;fontSize=12;align=center;strokeWidth=1;spacing=6;spacingTop=-4;" parent="WIyWlLk6GJQsqaUBKTNV-1" vertex="1">
          <mxGeometry x="230" width="100" height="80" as="geometry" />
        </mxCell>
        <mxCell id="WIyWlLk6GJQsqaUBKTNV-7" value="Plug in lamp" style="rounded=1;whiteSpace=wrap;html=1;fontSize=12;glass=0;strokeWidth=1;shadow=0;" parent="WIyWlLk6GJQsqaUBKTNV-1" vertex="1">
          <mxGeometry x="420" y="20" width="120" height="40" as="geometry" />
        </mxCell>
        <mxCell id="WIyWlLk6GJQsqaUBKTNV-9" value="No" style="edgeStyle=orthogonalEdgeStyle;rounded=0;html=1;jettySize=auto;orthogonalLoop=1;fontSize=11;endArrow=block;endFill=0;endSize=8;strokeWidth=1;shadow=0;labelBackgroundColor=none;" parent="WIyWlLk6GJQsqaUBKTNV-1" source="WIyWlLk6GJQsqaUBKTNV-10" target="WIyWlLk6GJQsqaUBKTNV-12" edge="1">
          <mxGeometry y="10" relative="1" as="geometry">
            <mxPoint as="offset" />
          </mxGeometry>
        </mxCell>
        <mxCell id="WIyWlLk6GJQsqaUBKTNV-10" value="처음으로" style="rhombus;whiteSpace=wrap;html=1;shadow=0;fontFamily=Helvetica;fontSize=12;align=center;strokeWidth=1;spacing=6;spacingTop=-4;" parent="WIyWlLk6GJQsqaUBKTNV-1" vertex="1">
          <mxGeometry x="300" y="130" width="100" height="80" as="geometry" />
        </mxCell>
        <mxCell id="WIyWlLk6GJQsqaUBKTNV-11" value="&lt;div&gt;0.추천메뉴&lt;/div&gt;&lt;div&gt;&lt;br&gt;&lt;/div&gt;1.버거&lt;div&gt;&lt;br&gt;&lt;div&gt;&lt;div&gt;2.맥런치&lt;/div&gt;&lt;/div&gt;&lt;div&gt;&lt;/div&gt;&lt;div&gt;&lt;br&gt;&lt;/div&gt;3.맥모닝&lt;div&gt;&lt;br&gt;&lt;/div&gt;&lt;div&gt;4.해피스낵&lt;/div&gt;&lt;div&gt;&lt;br&gt;&lt;/div&gt;&lt;div&gt;5.사이드&amp;amp;디저트&lt;/div&gt;&lt;div&gt;&lt;br&gt;&lt;/div&gt;&lt;div&gt;6.맥카페&amp;amp;음료&lt;/div&gt;&lt;div&gt;&lt;br&gt;&lt;/div&gt;&lt;div&gt;7.해피밀&lt;/div&gt;&lt;/div&gt;" style="rounded=1;whiteSpace=wrap;html=1;fontSize=12;glass=0;strokeWidth=1;shadow=0;" parent="WIyWlLk6GJQsqaUBKTNV-1" vertex="1">
          <mxGeometry x="701" y="190" width="120" height="370" as="geometry" />
        </mxCell>
        <mxCell id="WIyWlLk6GJQsqaUBKTNV-12" value="전체 카테고리 출력" style="rounded=1;whiteSpace=wrap;html=1;fontSize=12;glass=0;strokeWidth=1;shadow=0;" parent="WIyWlLk6GJQsqaUBKTNV-1" vertex="1">
          <mxGeometry x="700" y="150" width="120" height="40" as="geometry" />
        </mxCell>
        <mxCell id="9iSrUkW6Ipre5doRhSkS-3" value="" style="shape=parallelogram;perimeter=parallelogramPerimeter;whiteSpace=wrap;html=1;fixedSize=1;" vertex="1" parent="WIyWlLk6GJQsqaUBKTNV-1">
          <mxGeometry x="260" y="410" width="120" height="60" as="geometry" />
        </mxCell>
        <mxCell id="9iSrUkW6Ipre5doRhSkS-5" value="Yes" style="rounded=0;html=1;jettySize=auto;orthogonalLoop=1;fontSize=11;endArrow=block;endFill=0;endSize=8;strokeWidth=1;shadow=0;labelBackgroundColor=none;edgeStyle=orthogonalEdgeStyle;entryX=0.417;entryY=0.987;entryDx=0;entryDy=0;entryPerimeter=0;" edge="1" parent="WIyWlLk6GJQsqaUBKTNV-1" target="WIyWlLk6GJQsqaUBKTNV-3">
          <mxGeometry x="0.6355" y="-10" relative="1" as="geometry">
            <mxPoint as="offset" />
            <mxPoint x="300" y="171" as="sourcePoint" />
            <mxPoint x="60" y="350" as="targetPoint" />
          </mxGeometry>
        </mxCell>
        <mxCell id="9iSrUkW6Ipre5doRhSkS-7" value="&lt;font style=&quot;font-size: 10px;&quot;&gt;1.크리스마스 트리플 치즈 버거&lt;/font&gt;&lt;div&gt;&lt;font style=&quot;font-size: 10px;&quot;&gt;&lt;br&gt;&lt;/font&gt;&lt;/div&gt;&lt;div&gt;&lt;font style=&quot;font-size: 10px;&quot;&gt;2.맥스파이시 상하이 버거&amp;nbsp;&lt;/font&gt;&lt;/div&gt;&lt;div&gt;&lt;font style=&quot;font-size: 10px;&quot;&gt;&lt;br&gt;&lt;/font&gt;&lt;/div&gt;&lt;div&gt;&lt;font style=&quot;font-size: 10px;&quot;&gt;3.토마토 치즈 버거&lt;/font&gt;&lt;/div&gt;&lt;div&gt;&lt;font style=&quot;font-size: 10px;&quot;&gt;&lt;br&gt;&lt;/font&gt;&lt;/div&gt;&lt;div&gt;&lt;font style=&quot;font-size: 10px;&quot;&gt;4.빅맥&lt;/font&gt;&lt;/div&gt;&lt;div&gt;&lt;font style=&quot;font-size: 10px;&quot;&gt;&lt;br&gt;&lt;/font&gt;&lt;/div&gt;&lt;div&gt;&lt;font style=&quot;font-size: 10px;&quot;&gt;5.맥크리스피 디럭스 버거&lt;/font&gt;&lt;/div&gt;&lt;div&gt;&lt;font style=&quot;font-size: 10px;&quot;&gt;&lt;br&gt;&lt;/font&gt;&lt;/div&gt;&lt;div&gt;&lt;font style=&quot;font-size: 10px;&quot;&gt;6.1955버거&lt;/font&gt;&lt;/div&gt;&lt;div&gt;&lt;font style=&quot;font-size: 10px;&quot;&gt;&lt;br&gt;&lt;/font&gt;&lt;/div&gt;&lt;div&gt;&lt;font style=&quot;font-size: 10px;&quot;&gt;7.불고기 버거&lt;/font&gt;&lt;/div&gt;&lt;div&gt;&lt;font style=&quot;font-size: 10px;&quot;&gt;&lt;br&gt;&lt;/font&gt;&lt;/div&gt;&lt;div&gt;&lt;font style=&quot;font-size: 10px;&quot;&gt;8.슈비 버거&lt;/font&gt;&lt;/div&gt;&lt;div&gt;&lt;font style=&quot;font-size: 10px;&quot;&gt;&lt;br&gt;&lt;/font&gt;&lt;/div&gt;&lt;div&gt;&lt;font style=&quot;font-size: 10px;&quot;&gt;9.베이컨 토마토 디럭스&lt;/font&gt;&lt;/div&gt;" style="rounded=0;whiteSpace=wrap;html=1;align=center;" vertex="1" parent="WIyWlLk6GJQsqaUBKTNV-1">
          <mxGeometry x="400" y="269" width="120" height="290" as="geometry" />
        </mxCell>
        <mxCell id="9iSrUkW6Ipre5doRhSkS-63" value="&#xa;&lt;span style=&quot;color: rgb(0, 0, 0); font-family: Helvetica; font-size: 11px; font-style: normal; font-variant-ligatures: normal; font-variant-caps: normal; font-weight: 400; letter-spacing: normal; orphans: 2; text-align: center; text-indent: 0px; text-transform: none; widows: 2; word-spacing: 0px; -webkit-text-stroke-width: 0px; white-space: nowrap; background-color: rgb(255, 255, 255); text-decoration-thickness: initial; text-decoration-style: initial; text-decoration-color: initial; display: inline !important; float: none;&quot;&gt;세트&lt;/span&gt;&#xa;&#xa;" style="edgeStyle=orthogonalEdgeStyle;rounded=0;orthogonalLoop=1;jettySize=auto;html=1;exitX=1;exitY=1;exitDx=0;exitDy=0;entryX=0.5;entryY=0;entryDx=0;entryDy=0;" edge="1" parent="WIyWlLk6GJQsqaUBKTNV-1" source="9iSrUkW6Ipre5doRhSkS-8" target="9iSrUkW6Ipre5doRhSkS-30">
          <mxGeometry relative="1" as="geometry" />
        </mxCell>
        <mxCell id="9iSrUkW6Ipre5doRhSkS-8" value="세트/단품" style="rhombus;whiteSpace=wrap;html=1;shadow=0;fontFamily=Helvetica;fontSize=12;align=center;strokeWidth=1;spacing=6;spacingTop=-4;" vertex="1" parent="WIyWlLk6GJQsqaUBKTNV-1">
          <mxGeometry x="80" y="340" width="100" height="80" as="geometry" />
        </mxCell>
        <mxCell id="9iSrUkW6Ipre5doRhSkS-17" value="1.버거" style="endArrow=classic;html=1;rounded=0;entryX=0.986;entryY=0.614;entryDx=0;entryDy=0;entryPerimeter=0;exitX=0;exitY=0.5;exitDx=0;exitDy=0;" edge="1" parent="WIyWlLk6GJQsqaUBKTNV-1" source="WIyWlLk6GJQsqaUBKTNV-11">
          <mxGeometry width="50" height="50" relative="1" as="geometry">
            <mxPoint x="692" y="382" as="sourcePoint" />
            <mxPoint x="521.3199999999999" y="381.9200000000001" as="targetPoint" />
          </mxGeometry>
        </mxCell>
        <mxCell id="9iSrUkW6Ipre5doRhSkS-18" value="1버거" style="endArrow=classic;html=1;rounded=0;entryX=1;entryY=0.5;entryDx=0;entryDy=0;exitX=0;exitY=0.387;exitDx=0;exitDy=0;exitPerimeter=0;" edge="1" parent="WIyWlLk6GJQsqaUBKTNV-1" source="9iSrUkW6Ipre5doRhSkS-7" target="9iSrUkW6Ipre5doRhSkS-8">
          <mxGeometry width="50" height="50" relative="1" as="geometry">
            <mxPoint x="358.68" y="390.54" as="sourcePoint" />
            <mxPoint x="179.99999999999994" y="389.4600000000001" as="targetPoint" />
          </mxGeometry>
        </mxCell>
        <mxCell id="9iSrUkW6Ipre5doRhSkS-21" value="단품" style="endArrow=classic;html=1;rounded=0;exitX=0.208;exitY=0.693;exitDx=0;exitDy=0;exitPerimeter=0;" edge="1" parent="WIyWlLk6GJQsqaUBKTNV-1" source="9iSrUkW6Ipre5doRhSkS-8">
          <mxGeometry width="50" height="50" relative="1" as="geometry">
            <mxPoint x="100" y="403" as="sourcePoint" />
            <mxPoint x="100" y="561.6666666666666" as="targetPoint" />
          </mxGeometry>
        </mxCell>
        <mxCell id="9iSrUkW6Ipre5doRhSkS-22" value="처음으로" style="endArrow=classic;html=1;rounded=0;entryX=0.25;entryY=1;entryDx=0;entryDy=0;exitX=0;exitY=0.5;exitDx=0;exitDy=0;" edge="1" parent="WIyWlLk6GJQsqaUBKTNV-1" source="9iSrUkW6Ipre5doRhSkS-8" target="WIyWlLk6GJQsqaUBKTNV-3">
          <mxGeometry x="0.1176" width="50" height="50" relative="1" as="geometry">
            <mxPoint x="60" y="400" as="sourcePoint" />
            <mxPoint x="60" y="391.66666666666663" as="targetPoint" />
            <Array as="points">
              <mxPoint x="60" y="380" />
            </Array>
            <mxPoint as="offset" />
          </mxGeometry>
        </mxCell>
        <mxCell id="9iSrUkW6Ipre5doRhSkS-23" value="맥런치" style="rounded=0;html=1;jettySize=auto;orthogonalLoop=1;fontSize=11;endArrow=block;endFill=0;endSize=8;strokeWidth=1;shadow=0;labelBackgroundColor=none;edgeStyle=orthogonalEdgeStyle;" edge="1" parent="WIyWlLk6GJQsqaUBKTNV-1">
          <mxGeometry y="20" relative="1" as="geometry">
            <mxPoint as="offset" />
            <mxPoint x="700" y="470.0000000000001" as="sourcePoint" />
            <mxPoint x="500" y="530" as="targetPoint" />
            <Array as="points">
              <mxPoint x="589" y="470" />
            </Array>
          </mxGeometry>
        </mxCell>
        <mxCell id="9iSrUkW6Ipre5doRhSkS-24" value="맥모닝" style="rounded=0;html=1;jettySize=auto;orthogonalLoop=1;fontSize=11;endArrow=block;endFill=0;endSize=8;strokeWidth=1;shadow=0;labelBackgroundColor=none;edgeStyle=orthogonalEdgeStyle;" edge="1" parent="WIyWlLk6GJQsqaUBKTNV-1">
          <mxGeometry y="20" relative="1" as="geometry">
            <mxPoint as="offset" />
            <mxPoint x="701" y="640.0000000000001" as="sourcePoint" />
            <mxPoint x="500" y="710" as="targetPoint" />
            <Array as="points">
              <mxPoint x="590" y="640" />
            </Array>
          </mxGeometry>
        </mxCell>
        <mxCell id="9iSrUkW6Ipre5doRhSkS-25" value="사이드&amp;amp;디저트" style="rounded=0;html=1;jettySize=auto;orthogonalLoop=1;fontSize=11;endArrow=block;endFill=0;endSize=8;strokeWidth=1;shadow=0;labelBackgroundColor=none;edgeStyle=orthogonalEdgeStyle;exitX=-0.003;exitY=0.981;exitDx=0;exitDy=0;exitPerimeter=0;" edge="1" parent="WIyWlLk6GJQsqaUBKTNV-1" source="WIyWlLk6GJQsqaUBKTNV-11">
          <mxGeometry y="20" relative="1" as="geometry">
            <mxPoint as="offset" />
            <mxPoint x="700" y="690" as="sourcePoint" />
            <mxPoint x="660.03" y="830" as="targetPoint" />
            <Array as="points">
              <mxPoint x="660" y="710" />
            </Array>
          </mxGeometry>
        </mxCell>
        <mxCell id="9iSrUkW6Ipre5doRhSkS-26" value="해피스낵" style="rounded=0;html=1;jettySize=auto;orthogonalLoop=1;fontSize=11;endArrow=block;endFill=0;endSize=8;strokeWidth=1;shadow=0;labelBackgroundColor=none;edgeStyle=orthogonalEdgeStyle;" edge="1" parent="WIyWlLk6GJQsqaUBKTNV-1">
          <mxGeometry y="20" relative="1" as="geometry">
            <mxPoint as="offset" />
            <mxPoint x="701" y="560.0000000000001" as="sourcePoint" />
            <mxPoint x="510" y="610" as="targetPoint" />
            <Array as="points">
              <mxPoint x="590" y="560" />
            </Array>
          </mxGeometry>
        </mxCell>
        <mxCell id="9iSrUkW6Ipre5doRhSkS-27" value="맥카페&amp;amp;음료" style="rounded=0;html=1;jettySize=auto;orthogonalLoop=1;fontSize=11;endArrow=block;endFill=0;endSize=8;strokeWidth=1;shadow=0;labelBackgroundColor=none;edgeStyle=orthogonalEdgeStyle;exitX=0.5;exitY=1;exitDx=0;exitDy=0;" edge="1" parent="WIyWlLk6GJQsqaUBKTNV-1" source="WIyWlLk6GJQsqaUBKTNV-11">
          <mxGeometry y="20" relative="1" as="geometry">
            <mxPoint as="offset" />
            <mxPoint x="761" y="760.0000000000001" as="sourcePoint" />
            <mxPoint x="760" y="880" as="targetPoint" />
            <Array as="points">
              <mxPoint x="761" y="820" />
              <mxPoint x="760" y="820" />
            </Array>
          </mxGeometry>
        </mxCell>
        <mxCell id="9iSrUkW6Ipre5doRhSkS-28" value="해피밀" style="rounded=0;html=1;jettySize=auto;orthogonalLoop=1;fontSize=11;endArrow=block;endFill=0;endSize=8;strokeWidth=1;shadow=0;labelBackgroundColor=none;edgeStyle=orthogonalEdgeStyle;exitX=0.75;exitY=1;exitDx=0;exitDy=0;" edge="1" parent="WIyWlLk6GJQsqaUBKTNV-1" source="WIyWlLk6GJQsqaUBKTNV-11">
          <mxGeometry y="20" relative="1" as="geometry">
            <mxPoint as="offset" />
            <mxPoint x="801" y="760.0000000000001" as="sourcePoint" />
            <mxPoint x="790" y="830" as="targetPoint" />
            <Array as="points">
              <mxPoint x="791" y="820" />
              <mxPoint x="790" y="820" />
            </Array>
          </mxGeometry>
        </mxCell>
        <mxCell id="9iSrUkW6Ipre5doRhSkS-62" value="&lt;span style=&quot;color: rgb(0, 0, 0); font-family: Helvetica; font-size: 11px; font-style: normal; font-variant-ligatures: normal; font-variant-caps: normal; font-weight: 400; letter-spacing: normal; orphans: 2; text-align: center; text-indent: 0px; text-transform: none; widows: 2; word-spacing: 0px; -webkit-text-stroke-width: 0px; white-space: nowrap; background-color: rgb(255, 255, 255); text-decoration-thickness: initial; text-decoration-style: initial; text-decoration-color: initial; display: inline !important; float: none;&quot;&gt;라지 세트&lt;/span&gt;" style="edgeStyle=orthogonalEdgeStyle;rounded=0;orthogonalLoop=1;jettySize=auto;html=1;exitX=1;exitY=1;exitDx=0;exitDy=0;" edge="1" parent="WIyWlLk6GJQsqaUBKTNV-1" source="9iSrUkW6Ipre5doRhSkS-30">
          <mxGeometry relative="1" as="geometry">
            <mxPoint x="300" y="640" as="targetPoint" />
          </mxGeometry>
        </mxCell>
        <mxCell id="9iSrUkW6Ipre5doRhSkS-30" value="&lt;div&gt;&lt;span style=&quot;background-color: initial;&quot;&gt;1.라지 세트&amp;nbsp;&lt;/span&gt;&lt;/div&gt;&lt;div&gt;&lt;span style=&quot;background-color: initial;&quot;&gt;2.세트&lt;/span&gt;&lt;/div&gt;" style="rhombus;whiteSpace=wrap;html=1;" vertex="1" parent="WIyWlLk6GJQsqaUBKTNV-1">
          <mxGeometry x="180" y="520" width="100" height="80" as="geometry" />
        </mxCell>
        <mxCell id="9iSrUkW6Ipre5doRhSkS-50" style="edgeStyle=orthogonalEdgeStyle;rounded=0;orthogonalLoop=1;jettySize=auto;html=1;" edge="1" parent="WIyWlLk6GJQsqaUBKTNV-1">
          <mxGeometry relative="1" as="geometry">
            <mxPoint x="349.38" y="1270" as="targetPoint" />
            <mxPoint x="349.62" y="1210" as="sourcePoint" />
            <Array as="points">
              <mxPoint x="350.62" y="1210" />
              <mxPoint x="350.62" y="1240" />
              <mxPoint x="349.62" y="1240" />
            </Array>
          </mxGeometry>
        </mxCell>
        <mxCell id="9iSrUkW6Ipre5doRhSkS-46" value="버거 메뉴 출력" style="rounded=1;whiteSpace=wrap;html=1;" vertex="1" parent="WIyWlLk6GJQsqaUBKTNV-1">
          <mxGeometry x="400" y="225" width="120" height="35" as="geometry" />
        </mxCell>
        <mxCell id="9iSrUkW6Ipre5doRhSkS-64" value="&lt;span style=&quot;color: rgb(0, 0, 0); font-family: Helvetica; font-size: 11px; font-style: normal; font-variant-ligatures: normal; font-variant-caps: normal; font-weight: 400; letter-spacing: normal; orphans: 2; text-align: center; text-indent: 0px; text-transform: none; widows: 2; word-spacing: 0px; -webkit-text-stroke-width: 0px; white-space: nowrap; background-color: rgb(255, 255, 255); text-decoration-thickness: initial; text-decoration-style: initial; text-decoration-color: initial; display: inline !important; float: none;&quot;&gt;세트&lt;/span&gt;" style="edgeStyle=orthogonalEdgeStyle;rounded=0;orthogonalLoop=1;jettySize=auto;html=1;exitX=0;exitY=1;exitDx=0;exitDy=0;entryX=0.586;entryY=0.102;entryDx=0;entryDy=0;entryPerimeter=0;" edge="1" parent="WIyWlLk6GJQsqaUBKTNV-1" source="9iSrUkW6Ipre5doRhSkS-30" target="9iSrUkW6Ipre5doRhSkS-48">
          <mxGeometry relative="1" as="geometry" />
        </mxCell>
        <mxCell id="9iSrUkW6Ipre5doRhSkS-65" value="처음으로" style="edgeStyle=orthogonalEdgeStyle;rounded=0;orthogonalLoop=1;jettySize=auto;html=1;exitX=0;exitY=0.5;exitDx=0;exitDy=0;entryX=0.083;entryY=1;entryDx=0;entryDy=0;entryPerimeter=0;" edge="1" parent="WIyWlLk6GJQsqaUBKTNV-1" source="9iSrUkW6Ipre5doRhSkS-55" target="WIyWlLk6GJQsqaUBKTNV-3">
          <mxGeometry relative="1" as="geometry" />
        </mxCell>
        <mxCell id="9iSrUkW6Ipre5doRhSkS-78" value="" style="group" vertex="1" connectable="0" parent="WIyWlLk6GJQsqaUBKTNV-1">
          <mxGeometry x="135" y="646" width="120" height="654" as="geometry" />
        </mxCell>
        <mxCell id="9iSrUkW6Ipre5doRhSkS-60" style="edgeStyle=orthogonalEdgeStyle;rounded=0;orthogonalLoop=1;jettySize=auto;html=1;exitX=0.5;exitY=1;exitDx=0;exitDy=0;entryX=0.5;entryY=0;entryDx=0;entryDy=0;" edge="1" parent="9iSrUkW6Ipre5doRhSkS-78" source="9iSrUkW6Ipre5doRhSkS-45" target="9iSrUkW6Ipre5doRhSkS-49">
          <mxGeometry relative="1" as="geometry" />
        </mxCell>
        <mxCell id="9iSrUkW6Ipre5doRhSkS-45" value="&lt;div&gt;&lt;span style=&quot;background-color: initial;&quot;&gt;&lt;font style=&quot;font-size: 10px;&quot;&gt;후렌치 후라이-미디엄&lt;/font&gt;&lt;/span&gt;&lt;/div&gt;&lt;div&gt;&lt;font style=&quot;font-size: 10px;&quot;&gt;&lt;br&gt;&lt;/font&gt;&lt;/div&gt;&lt;div&gt;&lt;font style=&quot;font-size: 10px;&quot;&gt;코울슬로&lt;/font&gt;&lt;/div&gt;&lt;div&gt;&lt;font style=&quot;font-size: 10px;&quot;&gt;&lt;br&gt;&lt;/font&gt;&lt;/div&gt;&lt;div&gt;&lt;font style=&quot;font-size: 10px;&quot;&gt;후렌치 후라이M+모짜렐라 치즈스틱 추가&lt;/font&gt;&lt;/div&gt;" style="whiteSpace=wrap;html=1;aspect=fixed;" vertex="1" parent="9iSrUkW6Ipre5doRhSkS-78">
          <mxGeometry y="40" width="120" height="120" as="geometry" />
        </mxCell>
        <mxCell id="9iSrUkW6Ipre5doRhSkS-48" value="세트메뉴 사이드를 선택하세요." style="rounded=1;whiteSpace=wrap;html=1;" vertex="1" parent="9iSrUkW6Ipre5doRhSkS-78">
          <mxGeometry width="120" height="40" as="geometry" />
        </mxCell>
        <mxCell id="9iSrUkW6Ipre5doRhSkS-49" value="세트메뉴 음료를 선택하세요." style="rounded=1;whiteSpace=wrap;html=1;" vertex="1" parent="9iSrUkW6Ipre5doRhSkS-78">
          <mxGeometry y="234" width="120" height="40" as="geometry" />
        </mxCell>
        <mxCell id="9iSrUkW6Ipre5doRhSkS-53" value="최종 확인" style="rounded=1;whiteSpace=wrap;html=1;" vertex="1" parent="9iSrUkW6Ipre5doRhSkS-78">
          <mxGeometry y="470" width="120" height="20" as="geometry" />
        </mxCell>
        <mxCell id="9iSrUkW6Ipre5doRhSkS-55" value="1.선택한 버거(재료 추가/변경)&lt;div&gt;2.선택한 사이드(재료 추가/변경&amp;amp;수정)&lt;/div&gt;&lt;div&gt;3.선택한 음료(재료 추가/변경 &amp;amp;수정)&lt;/div&gt;&lt;div&gt;4.개수 변경&lt;/div&gt;&lt;div&gt;5. 취소&lt;/div&gt;&lt;div&gt;6. 장바구니에 담기&lt;/div&gt;&lt;div&gt;7.처음으로&lt;/div&gt;&lt;div&gt;8.도움 기능&lt;/div&gt;" style="whiteSpace=wrap;html=1;" vertex="1" parent="9iSrUkW6Ipre5doRhSkS-78">
          <mxGeometry y="490" width="120" height="164" as="geometry" />
        </mxCell>
        <mxCell id="9iSrUkW6Ipre5doRhSkS-59" style="edgeStyle=orthogonalEdgeStyle;rounded=0;orthogonalLoop=1;jettySize=auto;html=1;exitX=0.5;exitY=1;exitDx=0;exitDy=0;entryX=0.5;entryY=0;entryDx=0;entryDy=0;" edge="1" parent="9iSrUkW6Ipre5doRhSkS-78" source="9iSrUkW6Ipre5doRhSkS-57" target="9iSrUkW6Ipre5doRhSkS-53">
          <mxGeometry relative="1" as="geometry" />
        </mxCell>
        <mxCell id="9iSrUkW6Ipre5doRhSkS-57" value="콜라M 1000/콜라L 1500/콜라제로M 1000/콜라제로L 1500/사이다M 1000/사이다L 1500/오렌지주스 1000/생수 1000" style="whiteSpace=wrap;html=1;aspect=fixed;" vertex="1" parent="9iSrUkW6Ipre5doRhSkS-78">
          <mxGeometry y="274" width="120" height="120" as="geometry" />
        </mxCell>
        <mxCell id="9iSrUkW6Ipre5doRhSkS-66" value="음료 수정" style="edgeStyle=orthogonalEdgeStyle;rounded=0;orthogonalLoop=1;jettySize=auto;html=1;exitX=1;exitY=0.5;exitDx=0;exitDy=0;entryX=1.008;entryY=0.442;entryDx=0;entryDy=0;entryPerimeter=0;" edge="1" parent="9iSrUkW6Ipre5doRhSkS-78" source="9iSrUkW6Ipre5doRhSkS-55" target="9iSrUkW6Ipre5doRhSkS-57">
          <mxGeometry x="-0.0001" relative="1" as="geometry">
            <mxPoint as="offset" />
          </mxGeometry>
        </mxCell>
        <mxCell id="9iSrUkW6Ipre5doRhSkS-67" value="사이드 수정" style="edgeStyle=orthogonalEdgeStyle;rounded=0;orthogonalLoop=1;jettySize=auto;html=1;exitX=1;exitY=0.5;exitDx=0;exitDy=0;entryX=1;entryY=0.5;entryDx=0;entryDy=0;" edge="1" parent="9iSrUkW6Ipre5doRhSkS-78" source="9iSrUkW6Ipre5doRhSkS-55" target="9iSrUkW6Ipre5doRhSkS-45">
          <mxGeometry x="0.8281" relative="1" as="geometry">
            <mxPoint as="offset" />
          </mxGeometry>
        </mxCell>
        <mxCell id="9iSrUkW6Ipre5doRhSkS-85" value="" style="group" vertex="1" connectable="0" parent="WIyWlLk6GJQsqaUBKTNV-1">
          <mxGeometry x="390" y="970" width="120" height="150" as="geometry" />
        </mxCell>
        <mxCell id="9iSrUkW6Ipre5doRhSkS-56" value="1..기본 재료로 변경&lt;div&gt;2.양상추 변경/삭제&lt;/div&gt;&lt;div&gt;3.토마토 변경/삭제&lt;/div&gt;&lt;div&gt;4.소스 변경/삭제&lt;/div&gt;&lt;div&gt;5.*패티 변경&lt;/div&gt;&lt;div&gt;&lt;br&gt;&lt;/div&gt;&lt;div&gt;&lt;br&gt;&lt;/div&gt;" style="whiteSpace=wrap;html=1;aspect=fixed;" vertex="1" parent="9iSrUkW6Ipre5doRhSkS-85">
          <mxGeometry y="30" width="120" height="120" as="geometry" />
        </mxCell>
        <mxCell id="9iSrUkW6Ipre5doRhSkS-72" value="버거 재료 변경" style="rounded=1;whiteSpace=wrap;html=1;" vertex="1" parent="9iSrUkW6Ipre5doRhSkS-85">
          <mxGeometry width="120" height="30" as="geometry" />
        </mxCell>
        <mxCell id="9iSrUkW6Ipre5doRhSkS-86" value="" style="group" vertex="1" connectable="0" parent="WIyWlLk6GJQsqaUBKTNV-1">
          <mxGeometry x="360" y="600" width="120" height="150" as="geometry" />
        </mxCell>
        <mxCell id="9iSrUkW6Ipre5doRhSkS-70" value="사이드 재료 변경" style="rounded=1;whiteSpace=wrap;html=1;" vertex="1" parent="9iSrUkW6Ipre5doRhSkS-86">
          <mxGeometry width="120" height="30" as="geometry" />
        </mxCell>
        <mxCell id="9iSrUkW6Ipre5doRhSkS-83" value="" style="whiteSpace=wrap;html=1;aspect=fixed;" vertex="1" parent="9iSrUkW6Ipre5doRhSkS-86">
          <mxGeometry y="30" width="120" height="120" as="geometry" />
        </mxCell>
        <mxCell id="9iSrUkW6Ipre5doRhSkS-88" value="" style="group" vertex="1" connectable="0" parent="WIyWlLk6GJQsqaUBKTNV-1">
          <mxGeometry x="410" y="820" width="120" height="140" as="geometry" />
        </mxCell>
        <mxCell id="9iSrUkW6Ipre5doRhSkS-71" value="음료 재료 변경" style="rounded=1;whiteSpace=wrap;html=1;" vertex="1" parent="9iSrUkW6Ipre5doRhSkS-88">
          <mxGeometry width="120" height="30" as="geometry" />
        </mxCell>
        <mxCell id="9iSrUkW6Ipre5doRhSkS-82" value="" style="whiteSpace=wrap;html=1;aspect=fixed;" vertex="1" parent="9iSrUkW6Ipre5doRhSkS-88">
          <mxGeometry x="5" y="30" width="110" height="110" as="geometry" />
        </mxCell>
      </root>
    </mxGraphModel>
  </diagram>
</mxfile>
